<?xml version="1.0" standalone="no"?>
<!DOCTYPE svg PUBLIC "-//W3C//DTD SVG 20010904//EN"
 "http://www.w3.org/TR/2001/REC-SVG-20010904/DTD/svg10.dtd">
<svg version="1.0" xmlns="http://www.w3.org/2000/svg"
 width="700.000000pt" height="700.000000pt" viewBox="0 0 700.000000 700.000000"
 preserveAspectRatio="xMidYMid meet">
<metadata>
Created by potrace 1.14, written by Peter Selinger 2001-2017
</metadata>
<g transform="translate(0.000000,700.000000) scale(0.100000,-0.100000)"
fill="#000000" stroke="none">
<path d="M3755 6673 c44 -117 130 -462 164 -668 6 -33 13 -73 16 -90 2 -16 10
-68 15 -115 6 -47 13 -96 15 -110 2 -14 7 -61 11 -105 3 -44 8 -91 9 -105 27
-223 27 -945 0 -1215 -2 -22 -7 -69 -11 -105 -3 -36 -8 -82 -10 -102 -2 -20
-6 -49 -8 -65 -3 -15 -8 -48 -11 -73 -9 -71 -34 -216 -56 -319 -12 -51 -22
-101 -24 -110 -11 -53 -76 -295 -111 -412 -4 -15 93 -16 1143 -15 l1148 1 0
75 c1 41 -2 100 -6 130 -4 30 -10 82 -13 115 -23 252 -144 716 -247 950 -4 11
-29 70 -55 130 -85 202 -230 481 -347 670 -101 163 -316 466 -384 540 -10 12
-38 45 -63 75 -73 90 -127 147 -275 295 -269 269 -558 485 -807 604 -98 47
-103 48 -93 24z m859 -1218 c357 -423 683 -1003 836 -1490 44 -142 120 -432
120 -461 0 -2 -286 -4 -635 -4 -523 0 -635 2 -635 13 0 8 11 74 24 148 14 74
27 152 31 174 3 22 7 51 10 65 8 49 14 96 25 180 6 47 12 99 14 115 2 17 7 62
11 102 4 40 8 85 10 100 25 206 25 841 0 1038 -2 17 -7 55 -10 85 -8 69 -14
117 -21 155 -5 28 0 24 61 -40 36 -38 108 -119 159 -180z"/>
<path d="M3068 6158 c-35 -51 -89 -129 -119 -173 -30 -44 -163 -237 -296 -430
-132 -192 -272 -397 -312 -455 -40 -58 -127 -185 -194 -283 -67 -98 -157 -228
-200 -290 -42 -62 -82 -119 -87 -127 -6 -8 -51 -73 -100 -145 -49 -71 -94
-137 -100 -145 -28 -41 -530 -772 -609 -886 -50 -72 -93 -138 -96 -146 -5 -13
123 -15 1087 -14 l1093 1 0 1593 c0 875 -1 1592 -2 1592 -1 0 -30 -42 -65 -92z
m-370 -1978 l0 -680 -460 0 -459 0 237 351 c364 541 570 847 627 931 29 43 53
78 53 78 1 0 2 -306 2 -680z"/>
<path d="M605 2448 c36 -171 183 -459 312 -610 96 -112 215 -221 294 -270 25
-16 29 -15 113 28 117 59 233 137 339 229 l89 77 51 -57 c42 -48 110 -109 198
-180 146 -117 333 -201 500 -226 72 -10 230 -8 284 4 225 52 419 164 618 358
l98 96 97 -96 c173 -170 377 -297 552 -342 25 -6 54 -13 65 -16 11 -3 72 -7
135 -9 207 -5 361 41 550 163 109 71 225 168 294 245 l54 60 80 -69 c106 -91
237 -181 347 -237 101 -51 87 -53 201 36 227 177 460 543 519 816 l7 32 -2902
0 -2902 0 7 -32z"/>
<path d="M1694 1035 c-70 -65 -227 -168 -309 -203 -113 -49 -228 -78 -375 -96
-19 -3 -123 -5 -231 -5 l-196 -1 1 -217 1 -218 204 -1 c112 0 229 3 260 8 137
21 137 21 245 48 45 12 97 28 116 37 96 42 171 82 253 135 l90 60 41 -31 c329
-245 808 -322 1252 -200 135 37 240 87 382 181 l72 49 63 -43 c73 -50 120 -77
202 -117 250 -121 607 -159 912 -97 195 39 324 92 481 195 l93 61 72 -48 c150
-102 285 -161 452 -199 133 -30 197 -35 410 -37 l230 -1 1 218 0 217 -195 1
c-108 0 -205 2 -216 3 -11 2 -45 6 -75 10 -55 6 -184 38 -245 60 -133 49 -264
129 -390 240 -22 20 -43 36 -46 36 -4 0 -17 -10 -30 -23 -231 -221 -533 -334
-868 -326 -93 2 -185 13 -284 34 -158 32 -347 131 -497 259 -36 31 -67 56 -70
56 -3 0 -26 -18 -50 -40 -60 -55 -171 -134 -245 -175 -66 -37 -219 -91 -298
-106 -29 -5 -63 -12 -77 -15 -14 -3 -92 -7 -175 -10 -141 -3 -220 5 -370 39
-151 35 -331 134 -481 265 -27 23 -51 42 -54 42 -4 0 -28 -20 -56 -45z"/>
</g>
</svg>
